<?xml version="1.0" standalone="no"?>
<!DOCTYPE svg PUBLIC "-//W3C//DTD SVG 20010904//EN"
 "http://www.w3.org/TR/2001/REC-SVG-20010904/DTD/svg10.dtd">
<svg version="1.0" xmlns="http://www.w3.org/2000/svg"
 width="976.000000pt" height="976.000000pt" viewBox="0 0 976.000000 976.000000"
 preserveAspectRatio="xMidYMid meet">
<metadata>
Created by potrace 1.14, written by Peter Selinger 2001-2017
</metadata>
<g transform="translate(0.000000,976.000000) scale(0.100000,-0.100000)"
fill="#000000" stroke="none">
<path d="M4648 9755 c-2 -1 -53 -5 -114 -9 -60 -4 -119 -8 -130 -10 -10 -2
-53 -7 -94 -11 -41 -4 -84 -9 -95 -11 -22 -4 -91 -15 -120 -19 -73 -10 -112
-17 -127 -21 -16 -5 -36 -9 -88 -19 -55 -10 -76 -15 -105 -22 -39 -9 -34 -8
-85 -22 -43 -13 -54 -15 -102 -26 -12 -3 -54 -15 -93 -27 -38 -12 -73 -23 -77
-24 -5 -1 -10 -3 -13 -4 -3 -1 -8 -3 -12 -4 -29 -6 -130 -41 -139 -47 -6 -5
-19 -10 -30 -12 -10 -2 -32 -10 -49 -16 -16 -7 -34 -14 -40 -15 -10 -3 -53
-19 -85 -33 -8 -3 -17 -7 -20 -8 -3 0 -25 -10 -50 -22 -46 -21 -81 -35 -90
-38 -20 -4 -340 -168 -345 -175 -4 -6 -11 -8 -16 -5 -5 4 -9 2 -9 -2 0 -5 -20
-17 -45 -28 -25 -11 -45 -23 -45 -27 0 -5 -6 -8 -14 -8 -8 0 -21 -6 -28 -13
-7 -7 -29 -22 -48 -33 -19 -10 -39 -22 -45 -27 -40 -30 -84 -54 -89 -50 -3 3
-8 -2 -12 -11 -3 -9 -12 -16 -20 -16 -8 0 -14 -3 -14 -8 0 -4 -15 -15 -33 -25
-18 -10 -49 -31 -68 -47 -18 -17 -38 -30 -42 -30 -4 0 -13 -5 -20 -10 -28 -24
-56 -47 -87 -70 -18 -14 -39 -31 -46 -37 -7 -7 -15 -13 -18 -13 -3 0 -14 -8
-25 -17 -18 -18 -39 -35 -126 -108 -137 -113 -387 -363 -505 -505 -25 -30 -56
-66 -70 -81 -30 -32 -189 -244 -263 -349 -394 -563 -692 -1311 -793 -1985 -2
-11 -5 -29 -7 -40 -10 -43 -32 -235 -44 -380 -14 -182 -8 -685 12 -838 2 -15
6 -55 10 -90 3 -34 8 -73 10 -87 11 -61 17 -97 20 -123 12 -83 17 -115 25
-147 5 -19 11 -48 14 -64 4 -25 27 -129 31 -146 1 -3 7 -25 14 -50 7 -25 15
-55 17 -68 3 -13 11 -42 19 -66 8 -23 16 -51 18 -62 5 -27 68 -226 78 -244 7
-14 43 -109 45 -120 2 -12 17 -48 54 -132 23 -55 43 -101 45 -108 0 -3 23 -50
50 -105 27 -55 49 -103 47 -107 -1 -5 3 -8 9 -8 5 0 7 -4 4 -10 -3 -5 -3 -10
2 -10 4 0 14 -15 22 -33 8 -17 23 -44 33 -59 11 -16 16 -28 11 -28 -4 0 -3 -4
2 -8 6 -4 19 -25 30 -47 11 -22 23 -42 26 -45 4 -3 16 -23 28 -45 21 -40 39
-69 54 -89 4 -6 29 -45 54 -86 26 -41 53 -81 60 -88 7 -7 13 -17 13 -21 0 -4
8 -16 18 -27 9 -10 34 -44 54 -74 38 -55 74 -101 103 -131 8 -9 15 -19 15 -23
0 -4 6 -13 13 -20 10 -11 47 -54 110 -130 117 -140 369 -392 513 -512 27 -23
60 -52 74 -64 42 -37 206 -162 288 -218 42 -30 87 -62 100 -73 12 -10 24 -19
26 -19 6 0 139 -82 146 -90 11 -12 261 -150 380 -210 407 -205 963 -384 1385
-445 22 -3 65 -10 95 -15 30 -5 87 -12 125 -16 39 -3 72 -7 75 -9 3 -2 64 -7
135 -11 237 -15 665 -9 840 11 16 2 55 6 85 10 93 10 134 15 160 20 57 12 69
14 121 20 30 4 57 9 60 11 3 2 19 6 35 8 16 3 40 8 54 11 14 3 40 8 59 11 19
3 44 9 55 14 12 4 23 8 26 8 3 0 25 5 50 12 25 7 53 14 62 16 10 2 27 6 38 9
11 3 28 7 38 9 9 3 69 21 132 41 63 21 124 40 135 43 11 2 25 9 31 13 6 5 19
10 30 12 10 2 33 9 49 16 17 6 44 16 60 22 17 6 41 17 55 24 14 7 27 13 30 13
3 1 16 5 30 10 14 5 27 9 30 9 3 -1 19 6 35 15 17 9 110 55 207 103 97 47 180
90 183 95 4 6 11 8 16 5 5 -4 9 -2 9 2 0 5 20 17 45 28 25 11 45 23 45 28 0 4
4 7 10 7 5 0 41 20 79 45 38 25 74 45 79 45 6 0 12 3 14 8 2 4 44 34 93 66 50
33 92 63 93 68 2 4 10 8 18 8 8 0 14 4 14 8 0 4 12 15 28 24 15 9 38 26 52 37
36 29 41 33 85 66 55 41 73 56 104 84 14 13 43 37 65 55 124 100 410 386 511
511 22 27 49 59 60 70 11 12 47 57 80 100 33 43 64 83 70 89 6 6 31 40 55 76
24 36 46 67 50 70 3 3 27 38 53 78 370 566 616 1174 732 1807 32 172 40 224
50 315 3 30 8 73 10 95 26 217 26 756 0 965 -1 14 -6 56 -9 93 -4 37 -9 76
-11 86 -2 10 -6 36 -10 57 -3 22 -8 51 -10 65 -3 14 -7 41 -9 60 -3 19 -10 57
-16 84 -6 28 -13 61 -15 75 -2 14 -15 72 -30 130 -14 58 -28 115 -31 127 -2
12 -8 33 -13 45 -5 13 -9 25 -9 28 0 3 -6 25 -13 50 -7 25 -13 47 -14 50 -7
27 -57 180 -64 195 -10 20 -45 116 -47 125 -2 12 -17 47 -29 70 -7 14 -14 30
-15 35 -6 25 -61 147 -110 247 -21 42 -36 79 -33 82 4 3 1 6 -6 6 -7 0 -9 5
-6 10 3 6 1 10 -5 10 -6 0 -8 5 -5 10 3 6 1 10 -5 10 -6 0 -8 5 -5 10 3 6 2
10 -4 10 -5 0 -13 10 -17 23 -3 12 -15 34 -26 50 -11 15 -16 27 -11 27 4 0 3
4 -2 8 -6 4 -19 25 -30 47 -11 22 -24 43 -30 47 -5 4 -6 8 -2 8 4 0 3 6 -3 13
-21 25 -60 88 -60 97 0 6 -4 10 -9 10 -5 0 -13 10 -17 23 -4 12 -10 24 -13 27
-3 3 -33 46 -66 95 -32 50 -67 99 -77 109 -10 11 -18 24 -18 29 0 4 -6 14 -12
21 -7 7 -22 25 -33 40 -11 15 -32 42 -47 59 -15 18 -28 35 -28 39 0 4 -8 15
-18 25 -10 10 -40 45 -68 78 -27 33 -53 65 -59 72 -112 134 -371 391 -501 498
-26 22 -56 47 -65 57 -17 16 -87 71 -212 166 -34 26 -92 67 -130 92 -37 25
-67 48 -67 52 0 5 -4 8 -9 8 -9 0 -140 78 -151 90 -6 6 -18 13 -166 96 -428
240 -903 419 -1379 518 -129 27 -176 36 -215 41 -14 2 -72 10 -130 19 -94 13
-141 19 -283 32 -50 5 -604 13 -609 9z"/>
</g>
</svg>
